# xmcd
#
# Track frame offsets: 
#        150
#        13950
#        30039
#        45601
#        61553
#        77247
#        95904
#        111213
#        126046
#        136258
#
# Disc length: 1980 seconds
#
# Revision: 2
# Processed by: cddbd v1.5.2PL0 Copyright (c) Steve Scherf et al.
# Submitted via: ExactAudioCopy v1.0b1
#
DISCID=7907ba0a
DTITLE=Yvonne Fair - The Bitch Is Black
DYEAR=1975
DGENRE=Soul
TTITLE0=Funky Music Sho Nuff Turn Me On
TTITLE1=It Should Have Been Me
TTITLE2=Stay A Little Longer
TTITLE3=It's Bad For Me To See You
TTITLE4=Tell Me Something Good
TTITLE5=Let Your Hair Down
TTITLE6=Love Ain't No Toy
TTITLE7=I Know (You Don't Love Me No More)
TTITLE8=Walk Out The Door If You Wanna
TTITLE9=You Can't Judge A Book By Its Cover
EXTD=YEAR: 1975
EXTT0=
EXTT1=
EXTT2=
EXTT3=
EXTT4=
EXTT5=
EXTT6=
EXTT7=
EXTT8=
EXTT9=
PLAYORDER=
